PathFileType        4      (X/Y/Z)      C:\Users\pc\Desktop\IMUTRC\Sujet_03\Sujet_03_velo_80.trc         
DataRate	CameraRate	NumFrames	NumMarkers	Units	OrigDataRate	OrigDataStartFrame	OrigNumFrames
60.0	60.0	4	64	mm	60.0	469	936
Frame#	Time	pHipOrigin			pRightASI			pLeftASI			pRightCSI			pLeftCSI			pRightIschialTub			pLeftIschialTub			pSacrum			pL5SpinalProcess			pL3SpinalProcess			pT12SpinalProcess			pIJ			pT4SpinalProcess			pT8SpinalProcess			pPX			pC7SpinalProcess			pTopOfHead			pRightAuricularis			pLeftAuricularis			pBackOfHead			pRightAcromion			pLeftAcromion			pRightArmLatEpicondyle			pRightArmMedEpicondyle			pLeftArmLatEpicondyle			pLeftArmMedEpicondyle			pRightUlnarStyloid			pRightRadialStyloid			pRightOlecranon			pLeftUlnarStyloid			pLeftRadialStyloid			pLeftOlecranon			pRightTopOfHand			pRightPinky			pRightBallHand			pLeftTopOfHand			pLeftPinky			pLeftBallHand			pRightGreaterTrochanter			pRightKneeLatEpicondyle			pRightKneeMedEpicondyle			pRightPatella			pLeftGreaterTrochanter			pLeftKneeLatEpicondyle			pLeftKneeMedEpicondyle			pLeftPatella			pRightTibialTub			pRightLatMalleolus			pRightMedMalleolus			pLeftTibialTub			pLeftLatMalleolus			pLeftMedMalleolus			pRightHeelFoot			pRightFirstMetatarsal			pRightFifthMetatarsal			pRightPivotFoot			pRightHeelCenter			pRightToe			pLeftHeelFoot			pLeftFirstMetatarsal			pLeftFifthMetatarsal			pLeftPivotFoot			pLeftHeelCenter			pLeftToe			
		X1	Y1	Z1	X2	Y2	Z2	X3	Y3	Z3	X4	Y4	Z4	X5	Y5	Z5	X6	Y6	Z6	X7	Y7	Z7	X8	Y8	Z8	X9	Y9	Z9	X10	Y10	Z10	X11	Y11	Z11	X12	Y12	Z12	X13	Y13	Z13	X14	Y14	Z14	X15	Y15	Z15	X16	Y16	Z16	X17	Y17	Z17	X18	Y18	Z18	X19	Y19	Z19	X20	Y20	Z20	X21	Y21	Z21	X22	Y22	Z22	X23	Y23	Z23	X24	Y24	Z24	X25	Y25	Z25	X26	Y26	Z26	X27	Y27	Z27	X28	Y28	Z28	X29	Y29	Z29	X30	Y30	Z30	X31	Y31	Z31	X32	Y32	Z32	X33	Y33	Z33	X34	Y34	Z34	X35	Y35	Z35	X36	Y36	Z36	X37	Y37	Z37	X38	Y38	Z38	X39	Y39	Z39	X40	Y40	Z40	X41	Y41	Z41	X42	Y42	Z42	X43	Y43	Z43	X44	Y44	Z44	X45	Y45	Z45	X46	Y46	Z46	X47	Y47	Z47	X48	Y48	Z48	X49	Y49	Z49	X50	Y50	Z50	X51	Y51	Z51	X52	Y52	Z52	X53	Y53	Z53	X54	Y54	Z54	X55	Y55	Z55	X56	Y56	Z56	X57	Y57	Z57	X58	Y58	Z58	X59	Y59	Z59	X60	Y60	Z60	X61	Y61	Z61	X62	Y62	Z62	X63	Y63	Z63	X64	Y64	Z64	
469	7.8	0.0	1249.98473	7.653948992887842E-14	102.46629000000001	1336.62477	124.99270000000008	74.68370999999999	1328.42285	-147.9811899999999	71.39139	1412.46368	101.77317000000008	48.46065999999999	1405.648	-123.54869999999991	-62.149789999999996	1208.45527	64.51795000000007	-73.64403	1205.04743	-48.11409999999992	-61.05235	1286.48907	5.140640000000083	-1.3862400000000001	1376.76799	-4.505279999999916	67.23267	1475.30659	-13.342569999999913	132.03942	1564.19927	-21.140169999999912	401.89426	1593.48361	-34.30945999999992	282.50429	1701.03277	-34.71377999999991	205.91449	1644.42795	-28.648969999999913	300.52542	1511.75317	-25.992009999999926	329.23215	1733.72495	-36.67761999999991	577.02266	1833.82308	-80.57523999999991	511.98487	1774.44577	8.028640000000076	479.40822	1775.88977	-132.6170199999999	464.04405	1821.57795	-54.467699999999915	335.58575	1728.06447	174.78184000000007	320.27935	1688.44109	-251.7181899999999	431.81396	1445.50242	167.15752000000006	414.02387	1438.97554	109.57077000000005	415.58339	1414.48528	-237.91354999999993	402.35634	1409.4024	-178.99831999999995	518.39624	1202.91031	134.06102000000007	567.66554	1224.51256	135.96710000000004	396.00274	1437.58929	139.83702000000005	512.85127	1176.28294	-222.26057999999995	561.25418	1199.79127	-224.10889999999995	382.14033	1406.2256	-209.66889999999995	721.42273	1120.89107	198.05913	626.52301	1119.15827	166.46440000000004	572.74842	1173.22165	134.29206000000005	689.19263	1080.92113	-322.30095	600.35771	1088.08338	-276.84381	560.38778	1144.28388	-231.21338999999998	36.38882000000001	1232.19464	164.5005500000001	336.22111	950.61451	129.49798000000004	334.89263	950.03691	49.55810000000004	363.71489	985.03949	86.12020000000003	0.11551999999998971	1224.166	-167.90839999999992	288.45357	929.5321	-189.91496999999998	304.27982	930.51402	-111.53460999999996	326.05535	963.43724	-154.45030999999997	351.35424	893.08553	83.05892000000003	12.764970000000003	640.90525	70.69827000000004	18.19441	645.75709	4.216480000000039	345.17392	889.85097	-160.63062999999997	201.92905	492.98182	-179.80695999999998	216.3113	490.2671	-114.59588999999998	-71.68019	610.17692	10.339040000000042	59.03075	504.01399	-28.99552999999997	42.0493	484.95318	48.57618000000003	67.63699	478.83062	8.490720000000026	-41.81826	583.14523	10.223520000000038	128.34278	421.47491	7.682080000000018	163.80743	412.11779	-114.59588999999998	335.64351	395.71394	-124.76165999999999	310.63342	378.67473	-200.60057	345.46272	383.98865	-168.13944	202.10233	407.09267	-126.09013999999999	424.70947	371.62801	-191.47449	
470	7.817	0.0	1249.98473	7.653948992887842E-14	101.83093000000001	1337.20237	125.10822000000009	75.49234999999999	1327.67196	-147.9234299999999	70.92931	1412.92576	101.36885000000008	49.21153999999999	1405.01264	-124.06853999999991	-62.554109999999994	1208.80183	64.40243000000007	-73.41299	1204.87415	-48.28737999999992	-61.05235	1286.54683	4.620800000000083	-1.2707200000000003	1376.71023	-5.082879999999916	67.40595	1475.24883	-13.862409999999914	132.2127	1564.08375	-21.486729999999913	402.1253	1593.36809	-33.905139999999925	282.73533	1700.97501	-34.59825999999991	206.08777	1644.31243	-28.822249999999915	300.75646	1511.69541	-25.934249999999924	329.40543	1733.60943	-36.38881999999992	577.19594	1833.9386	-79.82435999999991	512.15815	1774.44577	8.664000000000076	479.69702	1775.94753	-132.03941999999992	464.21733	1821.57795	-53.89009999999991	335.47023	1728.29551	174.83960000000008	320.79919	1688.78765	-251.5449099999999	431.69844	1445.73346	167.04200000000006	414.08163	1439.26434	109.45525000000006	416.04547	1414.6008	-237.10490999999993	402.35634	1409.46016	-178.30519999999996	518.1652	1203.08359	133.31014000000005	567.49226	1224.62808	135.10070000000005	395.94498	1437.87809	139.77926000000005	512.50471	1176.16742	-222.78041999999994	560.96538	1199.56023	-224.62873999999994	382.37137	1406.39888	-208.91801999999996	721.24945	1121.00659	197.07721	626.29197	1119.33155	165.54024000000004	572.51738	1173.39493	133.48342000000005	688.61503	1080.74785	-323.16735	599.83787	1087.9101	-277.65245	560.04122	1144.1106	-231.84874999999997	36.56210000000001	1234.33176	164.6738300000001	350.2568	967.94252	131.98166000000003	349.21712	967.01836	51.98402000000004	376.19105	1003.58046	88.54612000000003	-0.34656000000001025	1221.97112	-167.5618399999999	271.01004	911.3377	-183.73463999999998	286.54749	912.60842	-105.29652999999996	310.34462	943.62555	-148.55878999999996	364.29249	910.41353	85.08052000000004	22.526410000000002	662.56526	73.75955000000005	27.49377	667.76366	7.277760000000039	328.30799	872.34968	-155.14342999999997	190.31929	473.74774	-176.91895999999997	205.04809	470.68645	-111.76564999999998	-62.61187	633.04989	13.227050000000043	67.00163	526.19384	-27.724809999999973	50.02018	506.32439	49.615860000000026	75.43459	500.49063	9.414880000000025	-32.98098	605.7294	12.707210000000039	135.6783	442.49956	7.73984000000002	151.62007	393.05698	-111.65012999999999	323.28287	375.03585	-121.52709999999999	298.27278	358.11216	-197.36601	333.04431	363.13729	-164.84712	189.85721	387.62754	-123.02885999999998	412.23331	350.02576	-188.06665	
471	7.833	0.0	1249.98473	7.653948992887842E-14	101.02229000000001	1337.72221	125.39702000000008	76.58978999999998	1326.97884	-147.7501499999999	70.35171	1413.33008	101.13781000000009	50.193459999999995	1404.43504	-124.41509999999991	-63.016189999999995	1209.14839	64.17139000000007	-73.06643	1204.70087	-48.57617999999992	-61.05235	1286.60459	4.043200000000082	-1.1552000000000004	1376.71023	-5.544959999999915	67.57923	1475.13331	-14.151209999999914	132.44374	1563.96823	-21.717769999999913	402.29858	1593.36809	-33.32753999999992	282.90861	1700.91725	-34.25169999999991	206.31881	1644.19691	-28.764489999999913	300.9875	1511.63765	-25.703209999999924	329.63647	1733.60943	-35.92673999999992	577.42698	1833.9386	-79.13123999999992	512.33143	1774.44577	9.299360000000076	479.8703	1776.00529	-131.34629999999993	464.39061	1821.57795	-53.19697999999992	335.35471	1728.69983	175.01288000000008	321.26127	1689.36525	-251.19834999999992	431.58292	1446.02226	167.04200000000006	414.13939	1439.66866	109.33973000000006	416.44979	1414.83184	-236.12298999999993	402.24082	1409.63344	-177.43879999999993	517.81864	1203.31463	132.61702000000005	567.1457	1224.85912	134.29206000000005	395.88722	1438.28242	139.77926000000005	511.86935	1176.16742	-223.35801999999995	560.44554	1199.38695	-225.20633999999995	382.54465	1406.68768	-207.99384999999995	720.90289	1121.23763	196.09529	626.00317	1119.50483	164.67383000000004	572.17082	1173.62597	132.67478000000006	687.69087	1080.57457	-324.20703	599.02923	1087.79458	-278.51885	559.34809	1143.99508	-232.54186999999996	36.38882000000001	1236.18008	164.90488000000008	363.48385	986.19469	134.46534000000003	363.02177	985.15501	54.467700000000036	387.85858	1023.04559	91.20308000000003	-0.5198400000000102	1220.29608	-167.27303999999992	253.04668	894.76057	-177.95863999999997	268.06428	896.03129	-99.40500999999996	293.88301	925.2001	-142.84054999999998	377.17297	928.89674	86.92884000000002	34.13618000000001	682.72351	76.93636000000004	38.46818	688.38399	10.454560000000042	310.57566	855.88807	-149.48294999999996	175.18616	456.53525	-173.33783999999997	189.85721	453.24293	-108.18452999999998	-51.52194	654.30558	16.17281000000004	77.4562	547.33401	-26.39632999999997	60.41699	526.48264	50.713300000000025	85.77364	520.99544	10.396800000000027	-22.00657	626.86957	15.24865000000004	145.67079	462.71557	7.85536000000002	135.33174	376.53761	-107.89572999999999	306.7635	356.14832	-117.31060999999998	281.69565	339.22463	-193.14953	316.46718	343.96096	-160.57287	173.51112	370.53057	-119.15892999999998	395.54066	329.63647	-183.56136	
472	7.85	0.0	1249.98473	7.653948992887842E-14	100.21365000000002	1338.01101	125.80134000000008	77.68723999999999	1326.40124	-147.51910999999993	69.83187	1413.56112	101.02229000000008	51.17537999999999	1403.97296	-124.58837999999992	-63.478269999999995	1209.37943	63.88259000000008	-72.77763	1204.58535	-48.92273999999992	-61.05235	1286.72011	3.465600000000082	-0.9819200000000003	1376.65247	-5.8915199999999155	67.81027	1475.07555	-14.382249999999914	132.67478	1563.85271	-21.717769999999913	402.64514	1593.31033	-32.80768999999992	283.19741	1700.80173	-33.90513999999991	206.60761	1644.08139	-28.591209999999915	301.2763	1511.52213	-25.472169999999924	329.86751	1733.49391	-35.46465999999992	577.71578	1833.88084	-78.49587999999991	512.62023	1774.38801	9.934720000000077	480.1591	1775.94753	-130.7686999999999	464.67941	1821.52019	-52.56161999999991	335.35471	1728.98863	175.3016800000001	321.66559	1689.94285	-250.7940299999999	431.58292	1446.19554	167.21528000000006	414.25491	1440.01522	109.45525000000006	416.85411	1415.06288	-235.37210999999994	402.24082	1409.80672	-176.74567999999994	517.52984	1203.43015	132.03942000000006	566.8569	1224.85912	133.65670000000006	395.94498	1438.51346	139.95254000000006	511.34951	1176.10966	-223.82009999999994	559.98346	1199.21367	-225.66841999999994	382.71793	1406.91872	-207.18520999999996	720.67185	1121.29539	195.34441	625.71436	1119.62035	163.98071000000002	571.88202	1173.68373	132.03942000000006	686.93999	1080.45905	-325.07343	598.33611	1087.73682	-279.26973	558.77049	1143.87956	-233.11946999999998	36.042260000000006	1237.62408	165.13592000000008	374.86257	1003.63822	136.19814000000002	375.09361	1002.88734	56.200510000000044	397.7933	1041.75983	93.22468000000003	-0.4620800000000102	1219.19864	-167.09975999999992	236.35403	881.1292	-173.45335999999998	250.62075	882.11112	-94.72643999999995	278.28781	909.66265	-138.04645999999997	388.95602	946.62907	88.02628000000003	46.55458000000001	699.41616	79.76660000000004	50.1357	705.712	13.28481000000004	293.88301	841.56358	-144.86214999999999	158.26247	442.32628	-169.29463999999996	172.93352	438.91844	-104.14132999999998	-39.10354	670.99823	18.540970000000048	90.741	565.35514	-24.779049999999973	73.75955	543.69513	52.15730000000003	99.23173	538.84329	11.840810000000028	-9.414879999999998	643.79325	17.443530000000038	159.53319	481.08326	8.895040000000021	117.13733	363.42609	-103.39044999999999	288.22253	340.09103	-112.57429	262.86588	323.05183	-188.29769	297.75294	327.44159	-155.77879	155.20119	356.72592	-114.59588999999998	376.53761	311.6731	-178.594	
